<svg xmlns="http://www.w3.org/2000/svg" viewBox="0 0 200 200" fill="none" role="img" aria-label="LIDACO date palm mark">
  <g stroke="#C9A84C" stroke-width="2" stroke-linecap="round" stroke-linejoin="round" fill="none">
    
    <circle cx="100" cy="100" r="86" stroke-width="1.6"></circle>

    
    <path d="M96 96 L96 168 Q96 178 87 183 M104 96 L104 168 Q104 178 113 183"></path>

    
    <path d="M100 96 C95 60 97 40 100 22 C103 40 105 60 100 96 Z"></path>
    <path d="M100 92 L100 30" stroke-width="1.2"></path>

    
    <path d="M100 96 Q80.6 62.1 46 44 Q65.4 77.9 100 96 Z"></path>
    <path d="M100 96 Q66.4 77.3 28 80 Q61.6 98.7 100 96 Z"></path>
    <path d="M100 96 Q65.9 97.8 40 120 Q74.1 118.2 100 96 Z"></path>
    
    <path d="M100 96 Q119.4 62.1 154 44 Q134.6 77.9 100 96 Z"></path>
    <path d="M100 96 Q133.6 77.3 172 80 Q138.4 98.7 100 96 Z"></path>
    <path d="M100 96 Q134.1 97.8 160 120 Q125.9 118.2 100 96 Z"></path>

    
    <g stroke-width="1.1">
      <path d="M100 96 Q74 70 48 47"></path>
      <path d="M100 96 Q66 88 31 80"></path>
      <path d="M100 96 Q70 108 43 118"></path>
      <path d="M100 96 Q126 70 152 47"></path>
      <path d="M100 96 Q134 88 169 80"></path>
      <path d="M100 96 Q130 108 157 118"></path>
    </g>
  </g>
</svg>